<?xml version="1.0" encoding="UTF-8" standalone="no"?>
<svg width="376px" height="208px" viewBox="0 0 376 208" version="1.1" xmlns="http://www.w3.org/2000/svg" xmlns:xlink="http://www.w3.org/1999/xlink">
    <!-- Generator: Sketch 42 (36781) - http://www.bohemiancoding.com/sketch -->
    <title>Path</title>
    <desc>Created with Sketch.</desc>
    <defs></defs>
    <g id="Page-1" stroke="none" stroke-width="1" fill="none" fill-rule="evenodd">
        <path d="M74.2226563,49.6796875 C68.2448779,31.2344216 46.8529617,32.7847753 29.7695313,37.5664062 C-6.31313609,47.6658999 -8.00582121,104.06027 29.03125,119.800781 C67.5315579,136.163158 93.3576004,107.753568 113.265625,78.796875 C123.066682,64.5410058 134.894162,44.3395331 132.527344,26.1953125 C132.184959,23.570562 126.233641,23.3873651 125.121094,23.9726562 C121.536574,25.8584083 117.836636,28.078895 115.488281,31.3789062 C112.09935,36.1411808 72.96366,102.011048 102.894531,105.464844 C107.555012,106.002628 112.304479,105.968694 116.96875,105.464844 C121.495975,104.975798 126.091741,104.231915 130.304688,102.503906 C135.831088,100.237163 141.015701,97.103294 145.863281,93.6132812 C147.516994,92.422692 157.284665,77.4868027 148.085938,83.2382812 C143.502084,86.1043231 134.759646,98.0855151 132.527344,101.761719 C130.691863,104.784429 126.891754,108.064515 128.082031,111.394531 C129.000422,113.963898 133.615001,112.896988 136.234375,112.132813 C145.155748,109.530092 150.404072,101.485769 154.011719,93.6132812 C154.732089,92.0413131 154.475751,86.7600407 154.011719,88.4257812 C149.344877,105.17839 146.593683,104.509381 161.421875,107.207031 C163.365237,107.560582 165.47376,107.831663 167.347656,107.207031 C176.239277,104.243158 183.279316,93.2747265 178.460938,84.2382812 C177.38996,82.2297574 172.174729,80.3934411 174.015625,79.0546875 C177.416593,76.5814047 182.406368,78.4483114 186.609375,78.3125 C207.064033,77.6515502 193.942686,85.7497765 189.574219,101.28125 C188.905782,103.657785 187.828549,106.94183 189.574219,108.6875 C191.155478,110.268759 194.143679,108.721894 196.242188,107.949219 C198.945199,106.953965 201.374827,105.267345 203.652344,103.503906 C209.052471,99.3226889 214.455146,95.0734279 219.207031,90.1679688 C222.16323,87.11623 225.12935,75.8171059 226.617188,79.796875 C229.238661,86.8089703 222.462367,94.6676833 223.652344,102.058594 C224.007812,104.266399 228.174096,103.424982 230.320313,102.796875 C238.507405,100.400858 246.662693,97.4660779 254.03125,93.1679687 C261.627112,88.7372716 269.069018,83.559556 274.773438,76.8671875 C282.109644,68.2604235 287.426353,58.0521649 292.554688,47.9726562 C294.646202,43.8618803 295.549143,39.1981131 296.257812,34.640625 C297.285143,28.0338155 298.041632,21.3160389 297.738281,14.6367187 C297.54263,10.3287781 298.879671,3.37245905 294.777344,2.04296875 C291.147991,0.86676094 290.11377,8.1742594 288.589844,11.671875 C284.81427,20.3373246 280.405507,29.0025407 278.960938,38.34375 C276.657523,53.2386228 276.592261,68.4891946 277.476563,83.5351562 C277.659652,86.65033 283.808151,91.0084713 287.109375,89.4609375 C293.745448,86.3501074 300.063944,82.378644 305.628906,77.609375 C310.551233,73.3908558 311.815577,63.754463 318.226562,62.7929688 C322.94121,62.0858845 314.736211,71.7159672 313.78125,76.3867187 C313.237174,79.0478143 313.466657,81.8372905 313.78125,84.5351562 C315.197108,96.6771774 317.792265,108.671919 318.964844,120.839844 C319.770539,129.20059 321.126308,137.748644 319.707031,146.027344 C318.109791,155.344111 315.31735,164.833921 310.074219,172.699219 C303.681886,182.288451 294.942564,190.36087 285.628906,197.148437 C269.034183,209.242269 232.254345,213.59499 224.875,188.996094 C221.768555,178.640823 225.730336,164.00927 235.25,157.882812 C255.49611,144.853263 278.617392,136.903039 299.703125,125.28125 C322.106647,112.933137 343.801798,99.3370103 365.640625,86.015625 C368.507753,84.2667165 372.787595,83.2954896 373.789062,80.0898437 C375.558024,74.427486 373.294271,68.2356771 373.046875,62.3085938" id="Path" stroke="#979797" stroke-width="2" class="clarity"></path>
    </g>
<style>
  .clarity {
    stroke-dasharray: 1000;
    stroke-dashoffset: 1000;
    animation: dash 2s linear forwards;
  }

  @keyframes dash {
    to {
      stroke-dashoffset: 0;
    }
</style></svg>
