<?xml version="1.0" encoding="UTF-8" standalone="no"?>
<svg width="937px" height="500px" viewBox="0 0 937 500" version="1.1" xmlns="http://www.w3.org/2000/svg" xmlns:xlink="http://www.w3.org/1999/xlink">
    <!-- Generator: Sketch 42 (36781) - http://www.bohemiancoding.com/sketch -->
    <title>Clouds</title>
    <desc>Created with Sketch.</desc>
    <defs>
        <linearGradient x1="50.7415354%" y1="158.964332%" x2="50%" y2="0%" id="linearGradient-1">
            <stop stop-color="#FFFFFF" offset="0%"></stop>
            <stop stop-color="#454545" offset="63.7737289%"></stop>
            <stop stop-color="#2E2E2E" offset="100%"></stop>
            <stop stop-color="#0A0A0A" offset="100%"></stop>
        </linearGradient>
    </defs>
    <g id="Page-1" stroke="none" stroke-width="1" fill="none" fill-rule="evenodd">
        <g id="Desktop" transform="translate(-33.000000, -112.000000)">
            <g id="Clouds" transform="translate(33.000000, 112.000000)">
                <polygon id="Path-2" stroke="#979797" fill="#EBEB00" points="692.950823 263.167272 663 356.933536 718.464384 356.933536 665.478736 461.630958 778.381393 331.603736 721.471651 331.603736 744.132263 262" class="light1"></polygon>
                <path d="M560.138556,265.565572 L888.267556,265.565572 C915.458556,259.802572 936.157556,236.033572 936.824556,207.039572 C937.505556,177.501572 917.178556,152.363572 889.493556,145.916572 C889.767556,143.785572 889.943556,141.625572 889.995556,139.432572 C890.773556,105.564572 863.958556,77.4835724 830.090556,76.7035724 C829.832556,76.6995724 829.583556,76.7245724 829.327556,76.7245724 C815.599556,33.1905724 775.484556,1.14157235 727.306556,0.0295723547 C682.312556,-1.00542765 643.071556,25.2235724 625.264556,63.5945724 C620.423556,62.2375724 615.364556,61.3895724 610.108556,61.2655724 C576.243556,60.4875724 548.161556,87.3025724 547.381556,121.164572 C547.188556,129.515572 548.685556,137.508572 551.545556,144.831572 C524.865556,150.977572 504.676556,174.497572 504.016556,203.115572 C503.266556,235.699572 528.088556,262.863572 560.138556,265.565572" id="Fill-286" fill="url(#linearGradient-1)" class="num1"></path>
                <polygon id="Path-2" stroke="#979797" fill="#EBEB00" transform="translate(169.492608, 399.815479) scale(-1, 1) translate(-169.492608, -399.815479) " points="141.752735 301.167272 111.801912 394.933536 167.266296 394.933536 114.280648 499.630958 227.183305 369.603736 170.273563 369.603736 192.934174 300" class="light1"></polygon>
                <path d="M403.764291,122.477498 C385.363291,115.521498 366.078291,116.324498 349.157291,123.162498 C346.009291,100.702498 331.322291,80.6994978 309.222291,72.3504978 C284.237291,62.8964978 257.206291,71.1824978 240.901291,90.9214978 C229.562291,76.2104978 214.294291,64.4324978 195.942291,57.4934978 C142.751291,37.3794978 83.8202909,65.5564978 64.3232909,120.426498 C63.6062909,122.467498 62.9602909,124.509498 62.3692909,126.559498 C37.6992909,120.670498 12.0652909,134.480498 3.12129088,159.635498 C-4.11070912,179.988498 1.64729088,201.975498 16.0262909,215.959498 C4.75829088,258.070498 26.4742909,302.740498 66.9452909,318.038498 C90.5142909,326.949498 115.459291,323.988498 135.716291,312.165498 C141.425291,316.286498 147.669291,319.784498 154.511291,322.375498 C181.770291,332.680498 210.863291,327.111498 232.412291,310.302498 C242.027291,323.483498 255.258291,334.092498 271.391291,340.188498 C315.903291,357.016498 365.222291,333.435498 381.543291,287.518498 C382.861291,283.791498 383.836291,280.035498 384.652291,276.270498 C413.218291,273.391498 439.098291,254.194498 449.638291,224.543498 C464.288291,183.293498 443.758291,137.598498 403.764291,122.477498 Z" id="Fill-524" fill="url(#linearGradient-1)"></path>
            </g>
        </g>
    </g>
<style>
  .light1 {
    stroke-dasharray: 1000;
    stroke-dashoffset: 1000;
    animation: dash 2s linear forwards;
  }

  @keyframes dash {
    to {
      stroke-dashoffset: 0;
    }
</style></svg>
